<svg width="752" height="24" viewBox="0 0 752 24" fill="none" xmlns="http://www.w3.org/2000/svg">
<path d="M2.86 10.3C2.86 11.488 3.124 12.5367 3.652 13.446C4.19467 14.3553 4.89867 15.0667 5.764 15.58C6.62933 16.0933 7.568 16.35 8.58 16.35C9.31333 16.35 9.98067 16.2547 10.582 16.064C11.198 15.8733 11.7553 15.6093 12.254 15.272C12.7527 14.92 13.178 14.5167 13.53 14.062V16.526C12.8847 17.098 12.1807 17.5233 11.418 17.802C10.6553 18.0807 9.70933 18.22 8.58 18.22C7.50933 18.22 6.50467 18.0293 5.566 17.648C4.642 17.252 3.828 16.702 3.124 15.998C2.42 15.2793 1.87 14.436 1.474 13.468C1.078 12.5 0.88 11.444 0.88 10.3C0.88 9.156 1.078 8.1 1.474 7.132C1.87 6.164 2.42 5.328 3.124 4.624C3.828 3.90533 4.642 3.35533 5.566 2.974C6.50467 2.578 7.50933 2.38 8.58 2.38C9.70933 2.38 10.6553 2.51933 11.418 2.798C12.1807 3.07667 12.8847 3.502 13.53 4.074V6.538C13.178 6.08333 12.7527 5.68733 12.254 5.35C11.7553 4.998 11.198 4.72667 10.582 4.536C9.98067 4.34533 9.31333 4.25 8.58 4.25C7.568 4.25 6.62933 4.50667 5.764 5.02C4.89867 5.53333 4.19467 6.24467 3.652 7.154C3.124 8.04867 2.86 9.09733 2.86 10.3ZM16.0505 12.94C16.0505 11.9133 16.2779 11.004 16.7325 10.212C17.2019 9.42 17.8325 8.79667 18.6245 8.342C19.4165 7.88733 20.3039 7.66 21.2865 7.66C22.2839 7.66 23.1712 7.88733 23.9485 8.342C24.7405 8.79667 25.3639 9.42 25.8185 10.212C26.2879 11.004 26.5225 11.9133 26.5225 12.94C26.5225 13.952 26.2879 14.8613 25.8185 15.668C25.3639 16.46 24.7405 17.0833 23.9485 17.538C23.1712 17.9927 22.2839 18.22 21.2865 18.22C20.3039 18.22 19.4165 17.9927 18.6245 17.538C17.8325 17.0833 17.2019 16.46 16.7325 15.668C16.2779 14.8613 16.0505 13.952 16.0505 12.94ZM17.8325 12.94C17.8325 13.644 17.9792 14.2673 18.2725 14.81C18.5805 15.3527 18.9912 15.7853 19.5045 16.108C20.0325 16.416 20.6265 16.57 21.2865 16.57C21.9465 16.57 22.5332 16.416 23.0465 16.108C23.5745 15.7853 23.9852 15.3527 24.2785 14.81C24.5865 14.2673 24.7405 13.644 24.7405 12.94C24.7405 12.236 24.5865 11.6127 24.2785 11.07C23.9852 10.5127 23.5745 10.08 23.0465 9.772C22.5332 9.464 21.9465 9.31 21.2865 9.31C20.6265 9.31 20.0325 9.464 19.5045 9.772C18.9912 10.08 18.5805 10.5127 18.2725 11.07C17.9792 11.6127 17.8325 12.236 17.8325 12.94ZM30.8103 22.84H29.0503V7.88H30.8103V22.84ZM39.2803 12.94C39.2803 14.0253 39.053 14.964 38.5983 15.756C38.1436 16.548 37.535 17.1567 36.7723 17.582C36.0243 18.0073 35.1883 18.22 34.2643 18.22C33.4283 18.22 32.6876 18.0073 32.0423 17.582C31.4116 17.1567 30.913 16.548 30.5463 15.756C30.1943 14.964 30.0183 14.0253 30.0183 12.94C30.0183 11.84 30.1943 10.9013 30.5463 10.124C30.913 9.332 31.4116 8.72333 32.0423 8.298C32.6876 7.87267 33.4283 7.66 34.2643 7.66C35.1883 7.66 36.0243 7.87267 36.7723 8.298C37.535 8.72333 38.1436 9.332 38.5983 10.124C39.053 10.9013 39.2803 11.84 39.2803 12.94ZM37.4983 12.94C37.4983 12.1627 37.337 11.5027 37.0143 10.96C36.7063 10.4173 36.2883 10.0067 35.7603 9.728C35.247 9.44933 34.675 9.31 34.0443 9.31C33.531 9.31 33.025 9.44933 32.5263 9.728C32.0276 10.0067 31.617 10.4173 31.2943 10.96C30.9716 11.5027 30.8103 12.1627 30.8103 12.94C30.8103 13.7173 30.9716 14.3773 31.2943 14.92C31.617 15.4627 32.0276 15.8733 32.5263 16.152C33.025 16.4307 33.531 16.57 34.0443 16.57C34.675 16.57 35.247 16.4307 35.7603 16.152C36.2883 15.8733 36.7063 15.4627 37.0143 14.92C37.337 14.3773 37.4983 13.7173 37.4983 12.94ZM49.6349 7.88L43.0349 22.84H41.0549L43.8269 16.57L39.9549 7.88H42.0449L45.2569 15.8L44.5309 15.712L47.6549 7.88H49.6349ZM53.2744 7.88V18H51.5144V7.88H53.2744ZM56.3324 9.816C56.0977 9.64 55.885 9.51533 55.6944 9.442C55.5037 9.354 55.2617 9.31 54.9684 9.31C54.5284 9.31 54.1837 9.42 53.9344 9.64C53.685 9.86 53.509 10.1607 53.4064 10.542C53.3184 10.9233 53.2744 11.356 53.2744 11.84H52.4824C52.4824 11.0333 52.6217 10.322 52.9004 9.706C53.1937 9.07533 53.5677 8.57667 54.0224 8.21C54.477 7.84333 54.939 7.66 55.4084 7.66C55.775 7.66 56.1124 7.71133 56.4204 7.814C56.743 7.902 57.0364 8.08533 57.3004 8.364L56.3324 9.816ZM59.2754 3.7C59.2754 3.36267 59.3927 3.07667 59.6274 2.842C59.8767 2.60733 60.1627 2.49 60.4854 2.49C60.8227 2.49 61.1087 2.60733 61.3434 2.842C61.5781 3.07667 61.6954 3.36267 61.6954 3.7C61.6954 4.02267 61.5781 4.30867 61.3434 4.558C61.1087 4.79267 60.8227 4.91 60.4854 4.91C60.1627 4.91 59.8767 4.79267 59.6274 4.558C59.3927 4.30867 59.2754 4.02267 59.2754 3.7ZM59.6054 7.88H61.3654V18H59.6054V7.88ZM64.5282 18.66H66.3102C66.3102 19.144 66.4422 19.5913 66.7062 20.002C66.9702 20.4273 67.3442 20.7647 67.8282 21.014C68.3122 21.278 68.8842 21.41 69.5442 21.41C70.0576 21.41 70.5636 21.2853 71.0622 21.036C71.5609 20.7867 71.9716 20.3907 72.2942 19.848C72.6316 19.32 72.8002 18.6307 72.8002 17.78V7.88H74.5602V17.78C74.5602 18.9387 74.3182 19.9067 73.8342 20.684C73.3502 21.476 72.7269 22.07 71.9642 22.466C71.2016 22.862 70.3949 23.06 69.5442 23.06C68.5616 23.06 67.6889 22.8767 66.9262 22.51C66.1782 22.1433 65.5916 21.6227 65.1662 20.948C64.7409 20.288 64.5282 19.5253 64.5282 18.66ZM64.3302 12.94C64.3302 11.84 64.5576 10.9013 65.0122 10.124C65.4669 9.332 66.0756 8.72333 66.8382 8.298C67.6009 7.87267 68.4369 7.66 69.3462 7.66C70.1969 7.66 70.9376 7.87267 71.5682 8.298C72.1989 8.72333 72.6902 9.332 73.0422 10.124C73.4089 10.9013 73.5922 11.84 73.5922 12.94C73.5922 14.0253 73.4089 14.964 73.0422 15.756C72.6902 16.548 72.1989 17.1567 71.5682 17.582C70.9376 18.0073 70.1969 18.22 69.3462 18.22C68.4369 18.22 67.6009 18.0073 66.8382 17.582C66.0756 17.1567 65.4669 16.548 65.0122 15.756C64.5576 14.964 64.3302 14.0253 64.3302 12.94ZM66.1122 12.94C66.1122 13.7173 66.2662 14.3773 66.5742 14.92C66.8969 15.4627 67.3222 15.8733 67.8502 16.152C68.3782 16.4307 68.9502 16.57 69.5662 16.57C70.0796 16.57 70.5856 16.4307 71.0842 16.152C71.5829 15.8733 71.9936 15.4627 72.3162 14.92C72.6389 14.3773 72.8002 13.7173 72.8002 12.94C72.8002 12.3533 72.7049 11.84 72.5142 11.4C72.3236 10.9453 72.0669 10.564 71.7442 10.256C71.4362 9.948 71.0916 9.71333 70.7102 9.552C70.3289 9.39067 69.9476 9.31 69.5662 9.31C68.9502 9.31 68.3782 9.44933 67.8502 9.728C67.3222 10.0067 66.8969 10.4173 66.5742 10.96C66.2662 11.5027 66.1122 12.1627 66.1122 12.94ZM79.7371 0.839999V18H77.9771V0.839999H79.7371ZM84.4671 11.84C84.4671 11.004 84.2838 10.3733 83.9171 9.948C83.5651 9.52267 83.0298 9.31 82.3111 9.31C81.7978 9.31 81.3431 9.42 80.9471 9.64C80.5658 9.86 80.2651 10.1607 80.0451 10.542C79.8398 10.9233 79.7371 11.356 79.7371 11.84H79.1651C79.1651 11.0333 79.3191 10.322 79.6271 9.706C79.9351 9.07533 80.3531 8.57667 80.8811 8.21C81.4238 7.84333 82.0471 7.66 82.7511 7.66C83.4551 7.66 84.0638 7.80667 84.5771 8.1C85.1051 8.39333 85.5084 8.83333 85.7871 9.42C86.0804 10.0067 86.2271 10.74 86.2271 11.62V18H84.4671V11.84ZM88.2157 7.88H93.2757V9.53H88.2157V7.88ZM89.8657 4.36H91.6257V18H89.8657V4.36ZM105.685 10.3C105.685 11.0187 105.831 11.6493 106.125 12.192C106.433 12.7347 106.843 13.16 107.357 13.468C107.885 13.776 108.471 13.93 109.117 13.93C109.762 13.93 110.334 13.8053 110.833 13.556C111.346 13.3067 111.764 12.9767 112.087 12.566V14.04C111.705 14.3773 111.28 14.634 110.811 14.81C110.356 14.9713 109.791 15.052 109.117 15.052C108.266 15.052 107.489 14.8467 106.785 14.436C106.095 14.0253 105.538 13.4607 105.113 12.742C104.702 12.0233 104.497 11.2093 104.497 10.3C104.497 9.376 104.702 8.562 105.113 7.858C105.538 7.13933 106.095 6.57467 106.785 6.164C107.489 5.75333 108.266 5.548 109.117 5.548C109.791 5.548 110.356 5.636 110.811 5.812C111.28 5.97333 111.705 6.22267 112.087 6.56V8.034C111.764 7.62333 111.346 7.29333 110.833 7.044C110.334 6.79467 109.762 6.67 109.117 6.67C108.471 6.67 107.885 6.824 107.357 7.132C106.843 7.44 106.433 7.86533 106.125 8.408C105.831 8.95067 105.685 9.58133 105.685 10.3ZM102.517 10.3C102.517 11.2827 102.685 12.192 103.023 13.028C103.36 13.8493 103.829 14.568 104.431 15.184C105.047 15.8 105.758 16.2767 106.565 16.614C107.386 16.9513 108.273 17.12 109.227 17.12C110.18 17.12 111.06 16.9513 111.867 16.614C112.688 16.2767 113.399 15.8 114.001 15.184C114.617 14.568 115.093 13.8493 115.431 13.028C115.768 12.192 115.937 11.2827 115.937 10.3C115.937 9.31733 115.768 8.41533 115.431 7.594C115.093 6.758 114.617 6.032 114.001 5.416C113.399 4.8 112.688 4.32333 111.867 3.986C111.06 3.64867 110.18 3.48 109.227 3.48C108.273 3.48 107.386 3.64867 106.565 3.986C105.758 4.32333 105.047 4.8 104.431 5.416C103.829 6.032 103.36 6.758 103.023 7.594C102.685 8.41533 102.517 9.31733 102.517 10.3ZM101.307 10.3C101.307 9.156 101.505 8.1 101.901 7.132C102.311 6.164 102.869 5.328 103.573 4.624C104.291 3.90533 105.135 3.35533 106.103 2.974C107.071 2.578 108.112 2.38 109.227 2.38C110.356 2.38 111.397 2.578 112.351 2.974C113.319 3.35533 114.155 3.90533 114.859 4.624C115.577 5.328 116.135 6.164 116.531 7.132C116.941 8.1 117.147 9.156 117.147 10.3C117.147 11.444 116.941 12.5 116.531 13.468C116.135 14.436 115.577 15.2793 114.859 15.998C114.155 16.702 113.319 17.252 112.351 17.648C111.397 18.0293 110.356 18.22 109.227 18.22C108.112 18.22 107.071 18.0293 106.103 17.648C105.135 17.252 104.291 16.702 103.573 15.998C102.869 15.2793 102.311 14.436 101.901 13.468C101.505 12.5 101.307 11.444 101.307 10.3ZM126.818 2.6H128.688V18H126.818V2.6ZM138.811 11.84C138.811 11.004 138.627 10.3733 138.261 9.948C137.894 9.52267 137.359 9.31 136.655 9.31C136.141 9.31 135.687 9.42 135.291 9.64C134.909 9.84533 134.609 10.1387 134.389 10.52C134.183 10.9013 134.081 11.3413 134.081 11.84V18H132.321V7.88H134.081V9.464C134.418 8.848 134.836 8.39333 135.335 8.1C135.848 7.80667 136.435 7.66 137.095 7.66C138.165 7.66 139.009 8.01933 139.625 8.738C140.255 9.442 140.571 10.4027 140.571 11.62V18H138.811V11.84ZM142.559 7.88H147.619V9.53H142.559V7.88ZM144.209 4.36H145.969V18H144.209V4.36ZM153.52 18.22C152.582 18.22 151.746 18 151.012 17.56C150.294 17.1053 149.729 16.482 149.318 15.69C148.922 14.898 148.724 13.9813 148.724 12.94C148.724 11.884 148.93 10.96 149.34 10.168C149.766 9.376 150.352 8.76 151.1 8.32C151.863 7.88 152.743 7.66 153.74 7.66C154.738 7.66 155.588 7.87267 156.292 8.298C157.011 8.70867 157.561 9.30267 157.942 10.08C158.324 10.8573 158.514 11.7813 158.514 12.852C158.514 12.9547 158.507 13.0647 158.492 13.182C158.492 13.2847 158.492 13.3507 158.492 13.38H149.846V11.884H157.106L156.402 12.896C156.446 12.8227 156.49 12.7127 156.534 12.566C156.578 12.4047 156.6 12.2727 156.6 12.17C156.6 11.5687 156.476 11.048 156.226 10.608C155.992 10.168 155.662 9.82333 155.236 9.574C154.811 9.32467 154.312 9.2 153.74 9.2C153.066 9.2 152.486 9.34667 152.002 9.64C151.533 9.91867 151.166 10.3293 150.902 10.872C150.653 11.4 150.521 12.0527 150.506 12.83C150.506 13.622 150.631 14.2967 150.88 14.854C151.13 15.4113 151.496 15.8367 151.98 16.13C152.464 16.4233 153.051 16.57 153.74 16.57C154.43 16.57 155.038 16.4233 155.566 16.13C156.094 15.822 156.542 15.36 156.908 14.744L158.338 15.646C157.81 16.4967 157.143 17.142 156.336 17.582C155.544 18.0073 154.606 18.22 153.52 18.22ZM162.907 7.88V18H161.147V7.88H162.907ZM165.965 9.816C165.73 9.64 165.517 9.51533 165.327 9.442C165.136 9.354 164.894 9.31 164.601 9.31C164.161 9.31 163.816 9.42 163.567 9.64C163.317 9.86 163.141 10.1607 163.039 10.542C162.951 10.9233 162.907 11.356 162.907 11.84H162.115C162.115 11.0333 162.254 10.322 162.533 9.706C162.826 9.07533 163.2 8.57667 163.655 8.21C164.109 7.84333 164.571 7.66 165.041 7.66C165.407 7.66 165.745 7.71133 166.053 7.814C166.375 7.902 166.669 8.08533 166.933 8.364L165.965 9.816ZM175.398 11.84C175.398 11.004 175.214 10.3733 174.848 9.948C174.481 9.52267 173.946 9.31 173.242 9.31C172.728 9.31 172.274 9.42 171.878 9.64C171.496 9.84533 171.196 10.1387 170.976 10.52C170.77 10.9013 170.668 11.3413 170.668 11.84V18H168.908V7.88H170.668V9.464C171.005 8.848 171.423 8.39333 171.922 8.1C172.435 7.80667 173.022 7.66 173.682 7.66C174.752 7.66 175.596 8.01933 176.212 8.738C176.842 9.442 177.158 10.4027 177.158 11.62V18H175.398V11.84ZM179.806 12.94C179.806 11.9133 180.034 11.004 180.488 10.212C180.958 9.42 181.588 8.79667 182.38 8.342C183.172 7.88733 184.06 7.66 185.042 7.66C186.04 7.66 186.927 7.88733 187.704 8.342C188.496 8.79667 189.12 9.42 189.574 10.212C190.044 11.004 190.278 11.9133 190.278 12.94C190.278 13.952 190.044 14.8613 189.574 15.668C189.12 16.46 188.496 17.0833 187.704 17.538C186.927 17.9927 186.04 18.22 185.042 18.22C184.06 18.22 183.172 17.9927 182.38 17.538C181.588 17.0833 180.958 16.46 180.488 15.668C180.034 14.8613 179.806 13.952 179.806 12.94ZM181.588 12.94C181.588 13.644 181.735 14.2673 182.028 14.81C182.336 15.3527 182.747 15.7853 183.26 16.108C183.788 16.416 184.382 16.57 185.042 16.57C185.702 16.57 186.289 16.416 186.802 16.108C187.33 15.7853 187.741 15.3527 188.034 14.81C188.342 14.2673 188.496 13.644 188.496 12.94C188.496 12.236 188.342 11.6127 188.034 11.07C187.741 10.5127 187.33 10.08 186.802 9.772C186.289 9.464 185.702 9.31 185.042 9.31C184.382 9.31 183.788 9.464 183.26 9.772C182.747 10.08 182.336 10.5127 182.028 11.07C181.735 11.6127 181.588 12.236 181.588 12.94ZM200.282 0.729999H201.91V22.73H200.282V0.729999ZM212.914 2.6H214.784V18H212.914V2.6ZM217.534 18H213.948V16.13H217.534C218.4 16.13 219.192 15.998 219.91 15.734C220.629 15.4553 221.245 15.0667 221.758 14.568C222.272 14.0547 222.668 13.4387 222.946 12.72C223.225 12.0013 223.364 11.1947 223.364 10.3C223.364 9.40533 223.225 8.59867 222.946 7.88C222.668 7.16133 222.272 6.55267 221.758 6.054C221.245 5.54067 220.629 5.152 219.91 4.888C219.192 4.60933 218.4 4.47 217.534 4.47H213.948V2.6H217.534C219.03 2.6 220.358 2.92267 221.516 3.568C222.675 4.21333 223.584 5.11533 224.244 6.274C224.904 7.418 225.234 8.76 225.234 10.3C225.234 11.84 224.904 13.1893 224.244 14.348C223.584 15.492 222.675 16.3867 221.516 17.032C220.358 17.6773 219.03 18 217.534 18ZM231.894 18.22C230.955 18.22 230.119 18 229.386 17.56C228.667 17.1053 228.102 16.482 227.692 15.69C227.296 14.898 227.098 13.9813 227.098 12.94C227.098 11.884 227.303 10.96 227.714 10.168C228.139 9.376 228.726 8.76 229.474 8.32C230.236 7.88 231.116 7.66 232.114 7.66C233.111 7.66 233.962 7.87267 234.666 8.298C235.384 8.70867 235.934 9.30267 236.316 10.08C236.697 10.8573 236.888 11.7813 236.888 12.852C236.888 12.9547 236.88 13.0647 236.866 13.182C236.866 13.2847 236.866 13.3507 236.866 13.38H228.22V11.884H235.48L234.776 12.896C234.82 12.8227 234.864 12.7127 234.908 12.566C234.952 12.4047 234.974 12.2727 234.974 12.17C234.974 11.5687 234.849 11.048 234.6 10.608C234.365 10.168 234.035 9.82333 233.61 9.574C233.184 9.32467 232.686 9.2 232.114 9.2C231.439 9.2 230.86 9.34667 230.376 9.64C229.906 9.91867 229.54 10.3293 229.276 10.872C229.026 11.4 228.894 12.0527 228.88 12.83C228.88 13.622 229.004 14.2967 229.254 14.854C229.503 15.4113 229.87 15.8367 230.354 16.13C230.838 16.4233 231.424 16.57 232.114 16.57C232.803 16.57 233.412 16.4233 233.94 16.13C234.468 15.822 234.915 15.36 235.282 14.744L236.712 15.646C236.184 16.4967 235.516 17.142 234.71 17.582C233.918 18.0073 232.979 18.22 231.894 18.22ZM239.938 14.898C240.143 15.206 240.378 15.492 240.642 15.756C240.906 16.02 241.207 16.2327 241.544 16.394C241.896 16.5407 242.277 16.614 242.688 16.614C243.187 16.614 243.575 16.504 243.854 16.284C244.147 16.0493 244.294 15.734 244.294 15.338C244.294 14.986 244.177 14.6927 243.942 14.458C243.722 14.2087 243.436 14.0033 243.084 13.842C242.732 13.666 242.358 13.5047 241.962 13.358C241.522 13.182 241.075 12.9767 240.62 12.742C240.18 12.4927 239.806 12.1773 239.498 11.796C239.205 11.4 239.058 10.9087 239.058 10.322C239.058 9.72067 239.212 9.222 239.52 8.826C239.843 8.43 240.253 8.13667 240.752 7.946C241.265 7.75533 241.793 7.66 242.336 7.66C242.879 7.66 243.385 7.748 243.854 7.924C244.338 8.1 244.763 8.33467 245.13 8.628C245.497 8.92133 245.783 9.25867 245.988 9.64L244.58 10.542C244.301 10.1607 243.949 9.84533 243.524 9.596C243.113 9.34667 242.644 9.222 242.116 9.222C241.749 9.222 241.434 9.30267 241.17 9.464C240.906 9.62533 240.774 9.87467 240.774 10.212C240.774 10.476 240.877 10.7107 241.082 10.916C241.287 11.1213 241.551 11.3047 241.874 11.466C242.197 11.6273 242.534 11.7813 242.886 11.928C243.473 12.1627 244.008 12.4193 244.492 12.698C244.976 12.962 245.357 13.2847 245.636 13.666C245.929 14.0473 246.076 14.5387 246.076 15.14C246.076 16.02 245.753 16.7533 245.108 17.34C244.477 17.9267 243.641 18.22 242.6 18.22C241.925 18.22 241.317 18.1027 240.774 17.868C240.231 17.6187 239.769 17.3033 239.388 16.922C239.021 16.5407 238.743 16.152 238.552 15.756L239.938 14.898ZM248.613 3.7C248.613 3.36267 248.73 3.07667 248.965 2.842C249.214 2.60733 249.5 2.49 249.823 2.49C250.16 2.49 250.446 2.60733 250.681 2.842C250.916 3.07667 251.033 3.36267 251.033 3.7C251.033 4.02267 250.916 4.30867 250.681 4.558C250.446 4.79267 250.16 4.91 249.823 4.91C249.5 4.91 249.214 4.79267 248.965 4.558C248.73 4.30867 248.613 4.02267 248.613 3.7ZM248.943 7.88H250.703V18H248.943V7.88ZM253.866 18.66H255.648C255.648 19.144 255.78 19.5913 256.044 20.002C256.308 20.4273 256.682 20.7647 257.166 21.014C257.65 21.278 258.222 21.41 258.882 21.41C259.395 21.41 259.901 21.2853 260.4 21.036C260.898 20.7867 261.309 20.3907 261.632 19.848C261.969 19.32 262.138 18.6307 262.138 17.78V7.88H263.898V17.78C263.898 18.9387 263.656 19.9067 263.172 20.684C262.688 21.476 262.064 22.07 261.302 22.466C260.539 22.862 259.732 23.06 258.882 23.06C257.899 23.06 257.026 22.8767 256.264 22.51C255.516 22.1433 254.929 21.6227 254.504 20.948C254.078 20.288 253.866 19.5253 253.866 18.66ZM253.668 12.94C253.668 11.84 253.895 10.9013 254.35 10.124C254.804 9.332 255.413 8.72333 256.176 8.298C256.938 7.87267 257.774 7.66 258.684 7.66C259.534 7.66 260.275 7.87267 260.906 8.298C261.536 8.72333 262.028 9.332 262.38 10.124C262.746 10.9013 262.93 11.84 262.93 12.94C262.93 14.0253 262.746 14.964 262.38 15.756C262.028 16.548 261.536 17.1567 260.906 17.582C260.275 18.0073 259.534 18.22 258.684 18.22C257.774 18.22 256.938 18.0073 256.176 17.582C255.413 17.1567 254.804 16.548 254.35 15.756C253.895 14.964 253.668 14.0253 253.668 12.94ZM255.45 12.94C255.45 13.7173 255.604 14.3773 255.912 14.92C256.234 15.4627 256.66 15.8733 257.188 16.152C257.716 16.4307 258.288 16.57 258.904 16.57C259.417 16.57 259.923 16.4307 260.422 16.152C260.92 15.8733 261.331 15.4627 261.654 14.92C261.976 14.3773 262.138 13.7173 262.138 12.94C262.138 12.3533 262.042 11.84 261.852 11.4C261.661 10.9453 261.404 10.564 261.082 10.256C260.774 9.948 260.429 9.71333 260.048 9.552C259.666 9.39067 259.285 9.31 258.904 9.31C258.288 9.31 257.716 9.44933 257.188 9.728C256.66 10.0067 256.234 10.4173 255.912 10.96C255.604 11.5027 255.45 12.1627 255.45 12.94ZM273.805 11.84C273.805 11.004 273.621 10.3733 273.255 9.948C272.888 9.52267 272.353 9.31 271.649 9.31C271.135 9.31 270.681 9.42 270.285 9.64C269.903 9.84533 269.603 10.1387 269.383 10.52C269.177 10.9013 269.075 11.3413 269.075 11.84V18H267.315V7.88H269.075V9.464C269.412 8.848 269.83 8.39333 270.329 8.1C270.842 7.80667 271.429 7.66 272.089 7.66C273.159 7.66 274.003 8.01933 274.619 8.738C275.249 9.442 275.565 10.4027 275.565 11.62V18H273.805V11.84ZM283.009 18.22C282.071 18.22 281.235 18 280.501 17.56C279.783 17.1053 279.218 16.482 278.807 15.69C278.411 14.898 278.213 13.9813 278.213 12.94C278.213 11.884 278.419 10.96 278.829 10.168C279.255 9.376 279.841 8.76 280.589 8.32C281.352 7.88 282.232 7.66 283.229 7.66C284.227 7.66 285.077 7.87267 285.781 8.298C286.5 8.70867 287.05 9.30267 287.431 10.08C287.813 10.8573 288.003 11.7813 288.003 12.852C288.003 12.9547 287.996 13.0647 287.981 13.182C287.981 13.2847 287.981 13.3507 287.981 13.38H279.335V11.884H286.595L285.891 12.896C285.935 12.8227 285.979 12.7127 286.023 12.566C286.067 12.4047 286.089 12.2727 286.089 12.17C286.089 11.5687 285.965 11.048 285.715 10.608C285.481 10.168 285.151 9.82333 284.725 9.574C284.3 9.32467 283.801 9.2 283.229 9.2C282.555 9.2 281.975 9.34667 281.491 9.64C281.022 9.91867 280.655 10.3293 280.391 10.872C280.142 11.4 280.01 12.0527 279.995 12.83C279.995 13.622 280.12 14.2967 280.369 14.854C280.619 15.4113 280.985 15.8367 281.469 16.13C281.953 16.4233 282.54 16.57 283.229 16.57C283.919 16.57 284.527 16.4233 285.055 16.13C285.583 15.822 286.031 15.36 286.397 14.744L287.827 15.646C287.299 16.4967 286.632 17.142 285.825 17.582C285.033 18.0073 284.095 18.22 283.009 18.22ZM298.225 0.839999H299.985V18H298.225V0.839999ZM289.755 12.94C289.755 11.84 289.983 10.9013 290.437 10.124C290.892 9.332 291.501 8.72333 292.263 8.298C293.026 7.87267 293.862 7.66 294.771 7.66C295.622 7.66 296.363 7.87267 296.993 8.298C297.624 8.72333 298.115 9.332 298.467 10.124C298.834 10.9013 299.017 11.84 299.017 12.94C299.017 14.0253 298.834 14.964 298.467 15.756C298.115 16.548 297.624 17.1567 296.993 17.582C296.363 18.0073 295.622 18.22 294.771 18.22C293.862 18.22 293.026 18.0073 292.263 17.582C291.501 17.1567 290.892 16.548 290.437 15.756C289.983 14.964 289.755 14.0253 289.755 12.94ZM291.537 12.94C291.537 13.7173 291.691 14.3773 291.999 14.92C292.322 15.4627 292.747 15.8733 293.275 16.152C293.803 16.4307 294.375 16.57 294.991 16.57C295.505 16.57 296.011 16.4307 296.509 16.152C297.008 15.8733 297.419 15.4627 297.741 14.92C298.064 14.3773 298.225 13.7173 298.225 12.94C298.225 12.1627 298.064 11.5027 297.741 10.96C297.419 10.4173 297.008 10.0067 296.509 9.728C296.011 9.44933 295.505 9.31 294.991 9.31C294.375 9.31 293.803 9.44933 293.275 9.728C292.747 10.0067 292.322 10.4173 291.999 10.96C291.691 11.5027 291.537 12.1627 291.537 12.94ZM311.868 0.839999V18H310.108V0.839999H311.868ZM320.338 12.94C320.338 14.0253 320.111 14.964 319.656 15.756C319.201 16.548 318.593 17.1567 317.83 17.582C317.082 18.0073 316.246 18.22 315.322 18.22C314.486 18.22 313.745 18.0073 313.1 17.582C312.469 17.1567 311.971 16.548 311.604 15.756C311.252 14.964 311.076 14.0253 311.076 12.94C311.076 11.84 311.252 10.9013 311.604 10.124C311.971 9.332 312.469 8.72333 313.1 8.298C313.745 7.87267 314.486 7.66 315.322 7.66C316.246 7.66 317.082 7.87267 317.83 8.298C318.593 8.72333 319.201 9.332 319.656 10.124C320.111 10.9013 320.338 11.84 320.338 12.94ZM318.556 12.94C318.556 12.1627 318.395 11.5027 318.072 10.96C317.764 10.4173 317.346 10.0067 316.818 9.728C316.305 9.44933 315.733 9.31 315.102 9.31C314.589 9.31 314.083 9.44933 313.584 9.728C313.085 10.0067 312.675 10.4173 312.352 10.96C312.029 11.5027 311.868 12.1627 311.868 12.94C311.868 13.7173 312.029 14.3773 312.352 14.92C312.675 15.4627 313.085 15.8733 313.584 16.152C314.083 16.4307 314.589 16.57 315.102 16.57C315.733 16.57 316.305 16.4307 316.818 16.152C317.346 15.8733 317.764 15.4627 318.072 14.92C318.395 14.3773 318.556 13.7173 318.556 12.94ZM330.693 7.88L324.093 22.84H322.113L324.885 16.57L321.013 7.88H323.103L326.315 15.8L325.589 15.712L328.713 7.88H330.693ZM344.998 14.524L350.058 2.6H352.148L344.998 18.77L337.848 2.6H339.938L344.998 14.524ZM354.131 3.7C354.131 3.36267 354.249 3.07667 354.483 2.842C354.733 2.60733 355.019 2.49 355.341 2.49C355.679 2.49 355.965 2.60733 356.199 2.842C356.434 3.07667 356.551 3.36267 356.551 3.7C356.551 4.02267 356.434 4.30867 356.199 4.558C355.965 4.79267 355.679 4.91 355.341 4.91C355.019 4.91 354.733 4.79267 354.483 4.558C354.249 4.30867 354.131 4.02267 354.131 3.7ZM354.461 7.88H356.221V18H354.461V7.88ZM360.858 12.94C360.858 13.644 361.005 14.2673 361.298 14.81C361.606 15.3527 362.017 15.7853 362.53 16.108C363.058 16.416 363.652 16.57 364.312 16.57C364.855 16.57 365.361 16.4893 365.83 16.328C366.314 16.152 366.732 15.9247 367.084 15.646C367.436 15.3527 367.685 15.0447 367.832 14.722V16.922C367.48 17.3327 366.974 17.6553 366.314 17.89C365.669 18.11 365.001 18.22 364.312 18.22C363.329 18.22 362.442 17.9927 361.65 17.538C360.858 17.0833 360.227 16.46 359.758 15.668C359.303 14.8613 359.076 13.952 359.076 12.94C359.076 11.9133 359.303 11.004 359.758 10.212C360.227 9.42 360.858 8.79667 361.65 8.342C362.442 7.88733 363.329 7.66 364.312 7.66C365.001 7.66 365.669 7.77733 366.314 8.012C366.974 8.232 367.48 8.54733 367.832 8.958V11.158C367.685 10.8207 367.436 10.5127 367.084 10.234C366.732 9.95533 366.314 9.73533 365.83 9.574C365.361 9.398 364.855 9.31 364.312 9.31C363.652 9.31 363.058 9.464 362.53 9.772C362.017 10.08 361.606 10.5127 361.298 11.07C361.005 11.6127 360.858 12.236 360.858 12.94ZM369.252 7.88H374.312V9.53H369.252V7.88ZM370.902 4.36H372.662V18H370.902V4.36ZM375.417 12.94C375.417 11.9133 375.644 11.004 376.099 10.212C376.568 9.42 377.199 8.79667 377.991 8.342C378.783 7.88733 379.67 7.66 380.653 7.66C381.65 7.66 382.538 7.88733 383.315 8.342C384.107 8.79667 384.73 9.42 385.185 10.212C385.654 11.004 385.889 11.9133 385.889 12.94C385.889 13.952 385.654 14.8613 385.185 15.668C384.73 16.46 384.107 17.0833 383.315 17.538C382.538 17.9927 381.65 18.22 380.653 18.22C379.67 18.22 378.783 17.9927 377.991 17.538C377.199 17.0833 376.568 16.46 376.099 15.668C375.644 14.8613 375.417 13.952 375.417 12.94ZM377.199 12.94C377.199 13.644 377.346 14.2673 377.639 14.81C377.947 15.3527 378.358 15.7853 378.871 16.108C379.399 16.416 379.993 16.57 380.653 16.57C381.313 16.57 381.9 16.416 382.413 16.108C382.941 15.7853 383.352 15.3527 383.645 14.81C383.953 14.2673 384.107 13.644 384.107 12.94C384.107 12.236 383.953 11.6127 383.645 11.07C383.352 10.5127 382.941 10.08 382.413 9.772C381.9 9.464 381.313 9.31 380.653 9.31C379.993 9.31 379.399 9.464 378.871 9.772C378.358 10.08 377.947 10.5127 377.639 11.07C377.346 11.6127 377.199 12.236 377.199 12.94ZM390.287 7.88V18H388.527V7.88H390.287ZM393.345 9.816C393.11 9.64 392.898 9.51533 392.707 9.442C392.516 9.354 392.274 9.31 391.981 9.31C391.541 9.31 391.196 9.42 390.947 9.64C390.698 9.86 390.522 10.1607 390.419 10.542C390.331 10.9233 390.287 11.356 390.287 11.84H389.495C389.495 11.0333 389.634 10.322 389.913 9.706C390.206 9.07533 390.58 8.57667 391.035 8.21C391.49 7.84333 391.952 7.66 392.421 7.66C392.788 7.66 393.125 7.71133 393.433 7.814C393.756 7.902 394.049 8.08533 394.313 8.364L393.345 9.816ZM395.518 7.88H400.578V9.53H395.518V7.88ZM400.402 2.952C400.255 2.70267 400.079 2.54867 399.874 2.49C399.683 2.41667 399.5 2.38 399.324 2.38C399.104 2.38 398.913 2.446 398.752 2.578C398.605 2.69533 398.488 2.90067 398.4 3.194C398.312 3.48733 398.268 3.876 398.268 4.36V18H396.508V4.14C396.508 3.33333 396.625 2.67333 396.86 2.16C397.095 1.64667 397.425 1.26533 397.85 1.016C398.29 0.752 398.818 0.62 399.434 0.62C399.757 0.62 400.043 0.663999 400.292 0.751999C400.541 0.839999 400.754 0.949999 400.93 1.082C401.121 1.214 401.267 1.35333 401.37 1.5L400.402 2.952ZM402.803 0.839999H404.563V18H402.803V0.839999ZM407.213 12.94C407.213 11.9133 407.44 11.004 407.895 10.212C408.364 9.42 408.995 8.79667 409.787 8.342C410.579 7.88733 411.466 7.66 412.449 7.66C413.446 7.66 414.334 7.88733 415.111 8.342C415.903 8.79667 416.526 9.42 416.981 10.212C417.45 11.004 417.685 11.9133 417.685 12.94C417.685 13.952 417.45 14.8613 416.981 15.668C416.526 16.46 415.903 17.0833 415.111 17.538C414.334 17.9927 413.446 18.22 412.449 18.22C411.466 18.22 410.579 17.9927 409.787 17.538C408.995 17.0833 408.364 16.46 407.895 15.668C407.44 14.8613 407.213 13.952 407.213 12.94ZM408.995 12.94C408.995 13.644 409.142 14.2673 409.435 14.81C409.743 15.3527 410.154 15.7853 410.667 16.108C411.195 16.416 411.789 16.57 412.449 16.57C413.109 16.57 413.696 16.416 414.209 16.108C414.737 15.7853 415.148 15.3527 415.441 14.81C415.749 14.2673 415.903 13.644 415.903 12.94C415.903 12.236 415.749 11.6127 415.441 11.07C415.148 10.5127 414.737 10.08 414.209 9.772C413.696 9.464 413.109 9.31 412.449 9.31C411.789 9.31 411.195 9.464 410.667 9.772C410.154 10.08 409.743 10.5127 409.435 11.07C409.142 11.6127 408.995 12.236 408.995 12.94ZM418.461 7.88H420.441L422.971 14.458L425.721 7.11L428.669 14.502L431.221 7.88H433.201L428.801 18.77L425.743 11.4L422.861 18.77L418.461 7.88ZM440.559 4.36V2.6H450.349V4.36H446.389V18H444.519V4.36H440.559ZM454.161 18.22C453.222 18.22 452.386 18 451.653 17.56C450.934 17.1053 450.369 16.482 449.959 15.69C449.563 14.898 449.365 13.9813 449.365 12.94C449.365 11.884 449.57 10.96 449.981 10.168C450.406 9.376 450.993 8.76 451.741 8.32C452.503 7.88 453.383 7.66 454.381 7.66C455.378 7.66 456.229 7.87267 456.933 8.298C457.651 8.70867 458.201 9.30267 458.583 10.08C458.964 10.8573 459.155 11.7813 459.155 12.852C459.155 12.9547 459.147 13.0647 459.133 13.182C459.133 13.2847 459.133 13.3507 459.133 13.38H450.487V11.884H457.747L457.043 12.896C457.087 12.8227 457.131 12.7127 457.175 12.566C457.219 12.4047 457.241 12.2727 457.241 12.17C457.241 11.5687 457.116 11.048 456.867 10.608C456.632 10.168 456.302 9.82333 455.877 9.574C455.451 9.32467 454.953 9.2 454.381 9.2C453.706 9.2 453.127 9.34667 452.643 9.64C452.173 9.91867 451.807 10.3293 451.543 10.872C451.293 11.4 451.161 12.0527 451.147 12.83C451.147 13.622 451.271 14.2967 451.521 14.854C451.77 15.4113 452.137 15.8367 452.621 16.13C453.105 16.4233 453.691 16.57 454.381 16.57C455.07 16.57 455.679 16.4233 456.207 16.13C456.735 15.822 457.182 15.36 457.549 14.744L458.979 15.646C458.451 16.4967 457.783 17.142 456.977 17.582C456.185 18.0073 455.246 18.22 454.161 18.22ZM475.647 11.62V18H473.887V11.84C473.887 10.9747 473.726 10.3367 473.403 9.926C473.095 9.51533 472.611 9.31 471.951 9.31C471.467 9.31 471.049 9.41267 470.697 9.618C470.345 9.80867 470.074 10.0947 469.883 10.476C469.692 10.8573 469.597 11.312 469.597 11.84V18H467.837V11.84C467.837 10.9747 467.676 10.3367 467.353 9.926C467.045 9.51533 466.561 9.31 465.901 9.31C465.417 9.31 464.999 9.41267 464.647 9.618C464.295 9.80867 464.024 10.0947 463.833 10.476C463.642 10.8573 463.547 11.312 463.547 11.84V18H461.787V7.88H463.547V9.354C463.855 8.782 464.236 8.35667 464.691 8.078C465.16 7.79933 465.71 7.66 466.341 7.66C467.045 7.66 467.646 7.82867 468.145 8.166C468.658 8.48867 469.032 8.95067 469.267 9.552C469.619 8.92133 470.059 8.452 470.587 8.144C471.115 7.82133 471.716 7.66 472.391 7.66C473.08 7.66 473.667 7.814 474.151 8.122C474.635 8.43 475.002 8.88467 475.251 9.486C475.515 10.0727 475.647 10.784 475.647 11.62ZM480.823 22.84H479.063V7.88H480.823V22.84ZM489.293 12.94C489.293 14.0253 489.066 14.964 488.611 15.756C488.156 16.548 487.548 17.1567 486.785 17.582C486.037 18.0073 485.201 18.22 484.277 18.22C483.441 18.22 482.7 18.0073 482.055 17.582C481.424 17.1567 480.926 16.548 480.559 15.756C480.207 14.964 480.031 14.0253 480.031 12.94C480.031 11.84 480.207 10.9013 480.559 10.124C480.926 9.332 481.424 8.72333 482.055 8.298C482.7 7.87267 483.441 7.66 484.277 7.66C485.201 7.66 486.037 7.87267 486.785 8.298C487.548 8.72333 488.156 9.332 488.611 10.124C489.066 10.9013 489.293 11.84 489.293 12.94ZM487.511 12.94C487.511 12.1627 487.35 11.5027 487.027 10.96C486.719 10.4173 486.301 10.0067 485.773 9.728C485.26 9.44933 484.688 9.31 484.057 9.31C483.544 9.31 483.038 9.44933 482.539 9.728C482.04 10.0067 481.63 10.4173 481.307 10.96C480.984 11.5027 480.823 12.1627 480.823 12.94C480.823 13.7173 480.984 14.3773 481.307 14.92C481.63 15.4627 482.04 15.8733 482.539 16.152C483.038 16.4307 483.544 16.57 484.057 16.57C484.688 16.57 485.26 16.4307 485.773 16.152C486.301 15.8733 486.719 15.4627 487.027 14.92C487.35 14.3773 487.511 13.7173 487.511 12.94ZM491.94 0.839999H493.7V18H491.94V0.839999ZM498.022 14.876C498.022 15.2573 498.11 15.5873 498.286 15.866C498.477 16.1447 498.733 16.3573 499.056 16.504C499.393 16.636 499.775 16.702 500.2 16.702C500.743 16.702 501.227 16.592 501.652 16.372C502.092 16.152 502.437 15.844 502.686 15.448C502.95 15.0373 503.082 14.568 503.082 14.04L503.434 15.36C503.434 16.0053 503.236 16.5407 502.84 16.966C502.459 17.3913 501.982 17.7067 501.41 17.912C500.853 18.1173 500.295 18.22 499.738 18.22C499.122 18.22 498.543 18.0953 498 17.846C497.472 17.582 497.047 17.208 496.724 16.724C496.401 16.24 496.24 15.6533 496.24 14.964C496.24 13.9813 496.585 13.1967 497.274 12.61C497.978 12.0087 498.953 11.708 500.2 11.708C500.933 11.708 501.542 11.796 502.026 11.972C502.525 12.1333 502.921 12.324 503.214 12.544C503.507 12.7493 503.705 12.918 503.808 13.05V14.084C503.295 13.732 502.767 13.4827 502.224 13.336C501.681 13.1747 501.102 13.094 500.486 13.094C499.914 13.094 499.445 13.1673 499.078 13.314C498.726 13.4607 498.462 13.666 498.286 13.93C498.11 14.194 498.022 14.5093 498.022 14.876ZM497.758 10.212L496.9 8.914C497.281 8.63533 497.802 8.35667 498.462 8.078C499.137 7.79933 499.943 7.66 500.882 7.66C501.674 7.66 502.363 7.78467 502.95 8.034C503.551 8.26867 504.013 8.61333 504.336 9.068C504.673 9.52267 504.842 10.08 504.842 10.74V18H503.082V10.982C503.082 10.63 503.023 10.344 502.906 10.124C502.789 9.88933 502.62 9.706 502.4 9.574C502.195 9.442 501.953 9.34667 501.674 9.288C501.395 9.22933 501.102 9.2 500.794 9.2C500.295 9.2 499.841 9.25867 499.43 9.376C499.034 9.49333 498.697 9.63267 498.418 9.794C498.139 9.95533 497.919 10.0947 497.758 10.212ZM506.502 7.88H511.562V9.53H506.502V7.88ZM508.152 4.36H509.912V18H508.152V4.36ZM517.463 18.22C516.524 18.22 515.688 18 514.955 17.56C514.236 17.1053 513.672 16.482 513.261 15.69C512.865 14.898 512.667 13.9813 512.667 12.94C512.667 11.884 512.872 10.96 513.283 10.168C513.708 9.376 514.295 8.76 515.043 8.32C515.806 7.88 516.686 7.66 517.683 7.66C518.68 7.66 519.531 7.87267 520.235 8.298C520.954 8.70867 521.504 9.30267 521.885 10.08C522.266 10.8573 522.457 11.7813 522.457 12.852C522.457 12.9547 522.45 13.0647 522.435 13.182C522.435 13.2847 522.435 13.3507 522.435 13.38H513.789V11.884H521.049L520.345 12.896C520.389 12.8227 520.433 12.7127 520.477 12.566C520.521 12.4047 520.543 12.2727 520.543 12.17C520.543 11.5687 520.418 11.048 520.169 10.608C519.934 10.168 519.604 9.82333 519.179 9.574C518.754 9.32467 518.255 9.2 517.683 9.2C517.008 9.2 516.429 9.34667 515.945 9.64C515.476 9.91867 515.109 10.3293 514.845 10.872C514.596 11.4 514.464 12.0527 514.449 12.83C514.449 13.622 514.574 14.2967 514.823 14.854C515.072 15.4113 515.439 15.8367 515.923 16.13C516.407 16.4233 516.994 16.57 517.683 16.57C518.372 16.57 518.981 16.4233 519.509 16.13C520.037 15.822 520.484 15.36 520.851 14.744L522.281 15.646C521.753 16.4967 521.086 17.142 520.279 17.582C519.487 18.0073 518.548 18.22 517.463 18.22ZM525.507 14.898C525.713 15.206 525.947 15.492 526.211 15.756C526.475 16.02 526.776 16.2327 527.113 16.394C527.465 16.5407 527.847 16.614 528.257 16.614C528.756 16.614 529.145 16.504 529.423 16.284C529.717 16.0493 529.863 15.734 529.863 15.338C529.863 14.986 529.746 14.6927 529.511 14.458C529.291 14.2087 529.005 14.0033 528.653 13.842C528.301 13.666 527.927 13.5047 527.531 13.358C527.091 13.182 526.644 12.9767 526.189 12.742C525.749 12.4927 525.375 12.1773 525.067 11.796C524.774 11.4 524.627 10.9087 524.627 10.322C524.627 9.72067 524.781 9.222 525.089 8.826C525.412 8.43 525.823 8.13667 526.321 7.946C526.835 7.75533 527.363 7.66 527.905 7.66C528.448 7.66 528.954 7.748 529.423 7.924C529.907 8.1 530.333 8.33467 530.699 8.628C531.066 8.92133 531.352 9.25867 531.557 9.64L530.149 10.542C529.871 10.1607 529.519 9.84533 529.093 9.596C528.683 9.34667 528.213 9.222 527.685 9.222C527.319 9.222 527.003 9.30267 526.739 9.464C526.475 9.62533 526.343 9.87467 526.343 10.212C526.343 10.476 526.446 10.7107 526.651 10.916C526.857 11.1213 527.121 11.3047 527.443 11.466C527.766 11.6273 528.103 11.7813 528.455 11.928C529.042 12.1627 529.577 12.4193 530.061 12.698C530.545 12.962 530.927 13.2847 531.205 13.666C531.499 14.0473 531.645 14.5387 531.645 15.14C531.645 16.02 531.323 16.7533 530.677 17.34C530.047 17.9267 529.211 18.22 528.169 18.22C527.495 18.22 526.886 18.1027 526.343 17.868C525.801 17.6187 525.339 17.3033 524.957 16.922C524.591 16.5407 524.312 16.152 524.121 15.756L525.507 14.898ZM539.458 13.6V11.95H543.858V13.6H539.458ZM552.763 2.6H554.633V18H552.763V2.6ZM553.797 4.36V2.6H556.943C557.94 2.6 558.828 2.79067 559.605 3.172C560.397 3.53867 561.02 4.06667 561.475 4.756C561.944 5.44533 562.179 6.26667 562.179 7.22C562.179 8.15867 561.944 8.98 561.475 9.684C561.02 10.3733 560.397 10.9087 559.605 11.29C558.828 11.6567 557.94 11.84 556.943 11.84H553.797V10.08H556.943C557.94 10.08 558.747 9.838 559.363 9.354C559.994 8.87 560.309 8.15867 560.309 7.22C560.309 6.26667 559.994 5.55533 559.363 5.086C558.747 4.602 557.94 4.36 556.943 4.36H553.797ZM563.38 12.94C563.38 11.9133 563.607 11.004 564.062 10.212C564.531 9.42 565.162 8.79667 565.954 8.342C566.746 7.88733 567.633 7.66 568.616 7.66C569.613 7.66 570.5 7.88733 571.278 8.342C572.07 8.79667 572.693 9.42 573.148 10.212C573.617 11.004 573.852 11.9133 573.852 12.94C573.852 13.952 573.617 14.8613 573.148 15.668C572.693 16.46 572.07 17.0833 571.278 17.538C570.5 17.9927 569.613 18.22 568.616 18.22C567.633 18.22 566.746 17.9927 565.954 17.538C565.162 17.0833 564.531 16.46 564.062 15.668C563.607 14.8613 563.38 13.952 563.38 12.94ZM565.162 12.94C565.162 13.644 565.308 14.2673 565.602 14.81C565.91 15.3527 566.32 15.7853 566.834 16.108C567.362 16.416 567.956 16.57 568.616 16.57C569.276 16.57 569.862 16.416 570.376 16.108C570.904 15.7853 571.314 15.3527 571.608 14.81C571.916 14.2673 572.07 13.644 572.07 12.94C572.07 12.236 571.916 11.6127 571.608 11.07C571.314 10.5127 570.904 10.08 570.376 9.772C569.862 9.464 569.276 9.31 568.616 9.31C567.956 9.31 567.362 9.464 566.834 9.772C566.32 10.08 565.91 10.5127 565.602 11.07C565.308 11.6127 565.162 12.236 565.162 12.94ZM574.627 7.88H576.607L579.137 14.458L581.887 7.11L584.835 14.502L587.387 7.88H589.367L584.967 18.77L581.909 11.4L579.027 18.77L574.627 7.88ZM594.934 18.22C593.995 18.22 593.159 18 592.426 17.56C591.707 17.1053 591.143 16.482 590.732 15.69C590.336 14.898 590.138 13.9813 590.138 12.94C590.138 11.884 590.343 10.96 590.754 10.168C591.179 9.376 591.766 8.76 592.514 8.32C593.277 7.88 594.157 7.66 595.154 7.66C596.151 7.66 597.002 7.87267 597.706 8.298C598.425 8.70867 598.975 9.30267 599.356 10.08C599.737 10.8573 599.928 11.7813 599.928 12.852C599.928 12.9547 599.921 13.0647 599.906 13.182C599.906 13.2847 599.906 13.3507 599.906 13.38H591.26V11.884H598.52L597.816 12.896C597.86 12.8227 597.904 12.7127 597.948 12.566C597.992 12.4047 598.014 12.2727 598.014 12.17C598.014 11.5687 597.889 11.048 597.64 10.608C597.405 10.168 597.075 9.82333 596.65 9.574C596.225 9.32467 595.726 9.2 595.154 9.2C594.479 9.2 593.9 9.34667 593.416 9.64C592.947 9.91867 592.58 10.3293 592.316 10.872C592.067 11.4 591.935 12.0527 591.92 12.83C591.92 13.622 592.045 14.2967 592.294 14.854C592.543 15.4113 592.91 15.8367 593.394 16.13C593.878 16.4233 594.465 16.57 595.154 16.57C595.843 16.57 596.452 16.4233 596.98 16.13C597.508 15.822 597.955 15.36 598.322 14.744L599.752 15.646C599.224 16.4967 598.557 17.142 597.75 17.582C596.958 18.0073 596.019 18.22 594.934 18.22ZM604.32 7.88V18H602.56V7.88H604.32ZM607.378 9.816C607.144 9.64 606.931 9.51533 606.74 9.442C606.55 9.354 606.308 9.31 606.014 9.31C605.574 9.31 605.23 9.42 604.98 9.64C604.731 9.86 604.555 10.1607 604.452 10.542C604.364 10.9233 604.32 11.356 604.32 11.84H603.528C603.528 11.0333 603.668 10.322 603.946 9.706C604.24 9.07533 604.614 8.57667 605.068 8.21C605.523 7.84333 605.985 7.66 606.454 7.66C606.821 7.66 607.158 7.71133 607.466 7.814C607.789 7.902 608.082 8.08533 608.346 8.364L607.378 9.816ZM613.915 18.22C612.976 18.22 612.14 18 611.407 17.56C610.688 17.1053 610.124 16.482 609.713 15.69C609.317 14.898 609.119 13.9813 609.119 12.94C609.119 11.884 609.324 10.96 609.735 10.168C610.16 9.376 610.747 8.76 611.495 8.32C612.258 7.88 613.138 7.66 614.135 7.66C615.132 7.66 615.983 7.87267 616.687 8.298C617.406 8.70867 617.956 9.30267 618.337 10.08C618.718 10.8573 618.909 11.7813 618.909 12.852C618.909 12.9547 618.902 13.0647 618.887 13.182C618.887 13.2847 618.887 13.3507 618.887 13.38H610.241V11.884H617.501L616.797 12.896C616.841 12.8227 616.885 12.7127 616.929 12.566C616.973 12.4047 616.995 12.2727 616.995 12.17C616.995 11.5687 616.87 11.048 616.621 10.608C616.386 10.168 616.056 9.82333 615.631 9.574C615.206 9.32467 614.707 9.2 614.135 9.2C613.46 9.2 612.881 9.34667 612.397 9.64C611.928 9.91867 611.561 10.3293 611.297 10.872C611.048 11.4 610.916 12.0527 610.901 12.83C610.901 13.622 611.026 14.2967 611.275 14.854C611.524 15.4113 611.891 15.8367 612.375 16.13C612.859 16.4233 613.446 16.57 614.135 16.57C614.824 16.57 615.433 16.4233 615.961 16.13C616.489 15.822 616.936 15.36 617.303 14.744L618.733 15.646C618.205 16.4967 617.538 17.142 616.731 17.582C615.939 18.0073 615 18.22 613.915 18.22ZM629.131 0.839999H630.891V18H629.131V0.839999ZM620.661 12.94C620.661 11.84 620.889 10.9013 621.343 10.124C621.798 9.332 622.407 8.72333 623.169 8.298C623.932 7.87267 624.768 7.66 625.677 7.66C626.528 7.66 627.269 7.87267 627.899 8.298C628.53 8.72333 629.021 9.332 629.373 10.124C629.74 10.9013 629.923 11.84 629.923 12.94C629.923 14.0253 629.74 14.964 629.373 15.756C629.021 16.548 628.53 17.1567 627.899 17.582C627.269 18.0073 626.528 18.22 625.677 18.22C624.768 18.22 623.932 18.0073 623.169 17.582C622.407 17.1567 621.798 16.548 621.343 15.756C620.889 14.964 620.661 14.0253 620.661 12.94ZM622.443 12.94C622.443 13.7173 622.597 14.3773 622.905 14.92C623.228 15.4627 623.653 15.8733 624.181 16.152C624.709 16.4307 625.281 16.57 625.897 16.57C626.411 16.57 626.917 16.4307 627.415 16.152C627.914 15.8733 628.325 15.4627 628.647 14.92C628.97 14.3773 629.131 13.7173 629.131 12.94C629.131 12.1627 628.97 11.5027 628.647 10.96C628.325 10.4173 627.914 10.0067 627.415 9.728C626.917 9.44933 626.411 9.31 625.897 9.31C625.281 9.31 624.709 9.44933 624.181 9.728C623.653 10.0067 623.228 10.4173 622.905 10.96C622.597 11.5027 622.443 12.1627 622.443 12.94ZM642.774 0.839999V18H641.014V0.839999H642.774ZM651.244 12.94C651.244 14.0253 651.016 14.964 650.562 15.756C650.107 16.548 649.498 17.1567 648.736 17.582C647.988 18.0073 647.152 18.22 646.228 18.22C645.392 18.22 644.651 18.0073 644.006 17.582C643.375 17.1567 642.876 16.548 642.51 15.756C642.158 14.964 641.982 14.0253 641.982 12.94C641.982 11.84 642.158 10.9013 642.51 10.124C642.876 9.332 643.375 8.72333 644.006 8.298C644.651 7.87267 645.392 7.66 646.228 7.66C647.152 7.66 647.988 7.87267 648.736 8.298C649.498 8.72333 650.107 9.332 650.562 10.124C651.016 10.9013 651.244 11.84 651.244 12.94ZM649.462 12.94C649.462 12.1627 649.3 11.5027 648.978 10.96C648.67 10.4173 648.252 10.0067 647.724 9.728C647.21 9.44933 646.638 9.31 646.008 9.31C645.494 9.31 644.988 9.44933 644.49 9.728C643.991 10.0067 643.58 10.4173 643.258 10.96C642.935 11.5027 642.774 12.1627 642.774 12.94C642.774 13.7173 642.935 14.3773 643.258 14.92C643.58 15.4627 643.991 15.8733 644.49 16.152C644.988 16.4307 645.494 16.57 646.008 16.57C646.638 16.57 647.21 16.4307 647.724 16.152C648.252 15.8733 648.67 15.4627 648.978 14.92C649.3 14.3773 649.462 13.7173 649.462 12.94ZM661.598 7.88L654.998 22.84H653.018L655.79 16.57L651.918 7.88H654.008L657.22 15.8L656.494 15.712L659.618 7.88H661.598ZM684.11 13.93L688.114 2.6H690.204L684.154 18.77L679.534 6.802L674.914 18.77L668.864 2.6H670.954L675.046 13.93L679.534 1.83L684.11 13.93ZM694.453 18.22C693.514 18.22 692.678 18 691.945 17.56C691.226 17.1053 690.662 16.482 690.251 15.69C689.855 14.898 689.657 13.9813 689.657 12.94C689.657 11.884 689.862 10.96 690.273 10.168C690.698 9.376 691.285 8.76 692.033 8.32C692.796 7.88 693.676 7.66 694.673 7.66C695.67 7.66 696.521 7.87267 697.225 8.298C697.944 8.70867 698.494 9.30267 698.875 10.08C699.256 10.8573 699.447 11.7813 699.447 12.852C699.447 12.9547 699.44 13.0647 699.425 13.182C699.425 13.2847 699.425 13.3507 699.425 13.38H690.779V11.884H698.039L697.335 12.896C697.379 12.8227 697.423 12.7127 697.467 12.566C697.511 12.4047 697.533 12.2727 697.533 12.17C697.533 11.5687 697.408 11.048 697.159 10.608C696.924 10.168 696.594 9.82333 696.169 9.574C695.744 9.32467 695.245 9.2 694.673 9.2C693.998 9.2 693.419 9.34667 692.935 9.64C692.466 9.91867 692.099 10.3293 691.835 10.872C691.586 11.4 691.454 12.0527 691.439 12.83C691.439 13.622 691.564 14.2967 691.813 14.854C692.062 15.4113 692.429 15.8367 692.913 16.13C693.397 16.4233 693.984 16.57 694.673 16.57C695.362 16.57 695.971 16.4233 696.499 16.13C697.027 15.822 697.474 15.36 697.841 14.744L699.271 15.646C698.743 16.4967 698.076 17.142 697.269 17.582C696.477 18.0073 695.538 18.22 694.453 18.22ZM703.729 0.839999V18H701.969V0.839999H703.729ZM712.199 12.94C712.199 14.0253 711.972 14.964 711.517 15.756C711.063 16.548 710.454 17.1567 709.691 17.582C708.943 18.0073 708.107 18.22 707.183 18.22C706.347 18.22 705.607 18.0073 704.961 17.582C704.331 17.1567 703.832 16.548 703.465 15.756C703.113 14.964 702.937 14.0253 702.937 12.94C702.937 11.84 703.113 10.9013 703.465 10.124C703.832 9.332 704.331 8.72333 704.961 8.298C705.607 7.87267 706.347 7.66 707.183 7.66C708.107 7.66 708.943 7.87267 709.691 8.298C710.454 8.72333 711.063 9.332 711.517 10.124C711.972 10.9013 712.199 11.84 712.199 12.94ZM710.417 12.94C710.417 12.1627 710.256 11.5027 709.933 10.96C709.625 10.4173 709.207 10.0067 708.679 9.728C708.166 9.44933 707.594 9.31 706.963 9.31C706.45 9.31 705.944 9.44933 705.445 9.728C704.947 10.0067 704.536 10.4173 704.213 10.96C703.891 11.5027 703.729 12.1627 703.729 12.94C703.729 13.7173 703.891 14.3773 704.213 14.92C704.536 15.4627 704.947 15.8733 705.445 16.152C705.944 16.4307 706.45 16.57 706.963 16.57C707.594 16.57 708.166 16.4307 708.679 16.152C709.207 15.8733 709.625 15.4627 709.933 14.92C710.256 14.3773 710.417 13.7173 710.417 12.94ZM714.076 7.88H719.136V9.53H714.076V7.88ZM718.96 2.952C718.814 2.70267 718.638 2.54867 718.432 2.49C718.242 2.41667 718.058 2.38 717.882 2.38C717.662 2.38 717.472 2.446 717.31 2.578C717.164 2.69533 717.046 2.90067 716.958 3.194C716.87 3.48733 716.826 3.876 716.826 4.36V18H715.066V4.14C715.066 3.33333 715.184 2.67333 715.418 2.16C715.653 1.64667 715.983 1.26533 716.408 1.016C716.848 0.752 717.376 0.62 717.992 0.62C718.315 0.62 718.601 0.663999 718.85 0.751999C719.1 0.839999 719.312 0.949999 719.488 1.082C719.679 1.214 719.826 1.35333 719.928 1.5L718.96 2.952ZM721.361 0.839999H723.121V18H721.361V0.839999ZM725.771 12.94C725.771 11.9133 725.999 11.004 726.453 10.212C726.923 9.42 727.553 8.79667 728.345 8.342C729.137 7.88733 730.025 7.66 731.007 7.66C732.005 7.66 732.892 7.88733 733.669 8.342C734.461 8.79667 735.085 9.42 735.539 10.212C736.009 11.004 736.243 11.9133 736.243 12.94C736.243 13.952 736.009 14.8613 735.539 15.668C735.085 16.46 734.461 17.0833 733.669 17.538C732.892 17.9927 732.005 18.22 731.007 18.22C730.025 18.22 729.137 17.9927 728.345 17.538C727.553 17.0833 726.923 16.46 726.453 15.668C725.999 14.8613 725.771 13.952 725.771 12.94ZM727.553 12.94C727.553 13.644 727.7 14.2673 727.993 14.81C728.301 15.3527 728.712 15.7853 729.225 16.108C729.753 16.416 730.347 16.57 731.007 16.57C731.667 16.57 732.254 16.416 732.767 16.108C733.295 15.7853 733.706 15.3527 733.999 14.81C734.307 14.2673 734.461 13.644 734.461 12.94C734.461 12.236 734.307 11.6127 733.999 11.07C733.706 10.5127 733.295 10.08 732.767 9.772C732.254 9.464 731.667 9.31 731.007 9.31C730.347 9.31 729.753 9.464 729.225 9.772C728.712 10.08 728.301 10.5127 727.993 11.07C727.7 11.6127 727.553 12.236 727.553 12.94ZM737.019 7.88H738.999L741.529 14.458L744.279 7.11L747.227 14.502L749.779 7.88H751.759L747.359 18.77L744.301 11.4L741.419 18.77L737.019 7.88Z" fill="#4D5053"/>
</svg>
