<svg width="69" height="69" viewBox="0 0 69 69" fill="none" xmlns="http://www.w3.org/2000/svg">
<circle cx="34.5" cy="34.5" r="34.5" fill="white"/>
<path d="M26.1888 44.36C24.2154 44.36 22.6154 43.6667 21.3888 42.28C20.2154 40.84 19.6288 38.9733 19.6288 36.68C19.6288 33.6933 20.5088 30.92 22.2688 28.36C24.0288 25.7467 26.2154 23.8 28.8288 22.52L29.3088 23.48C28.1888 24.3333 27.2021 25.4267 26.3488 26.76C25.4954 28.0933 24.8821 29.7467 24.5088 31.72L26.1888 32.12C28.0554 32.5467 29.4954 33.3467 30.5088 34.52C31.5754 35.64 32.1088 37 32.1088 38.6C32.1088 40.3067 31.5221 41.6933 30.3488 42.76C29.2288 43.8267 27.8421 44.36 26.1888 44.36ZM43.0688 44.36C41.0954 44.36 39.4954 43.6667 38.2688 42.28C37.0954 40.84 36.5088 38.9733 36.5088 36.68C36.5088 33.6933 37.3888 30.92 39.1488 28.36C40.9088 25.7467 43.0954 23.8 45.7088 22.52L46.1888 23.48C45.0688 24.3333 44.0821 25.4267 43.2288 26.76C42.3754 28.0933 41.7621 29.7467 41.3888 31.72L43.0688 32.12C44.9354 32.5467 46.3754 33.3467 47.3888 34.52C48.4554 35.64 48.9888 37 48.9888 38.6C48.9888 40.3067 48.4021 41.6933 47.2288 42.76C46.1088 43.8267 44.7221 44.36 43.0688 44.36Z" fill="#292F36"/>
</svg>
